<svg xmlns="http://www.w3.org/2000/svg" version="1.1" xmlns:xlink="http://www.w3.org/1999/xlink" width="512" height="512" x="0" y="0" viewBox="0 0 355572 355572" style="enable-background:new 0 0 512 512" xml:space="preserve" fill-rule="evenodd" class=""><g><circle cx="177786" cy="177786" r="177786" fill="#cf3f3f" opacity="1" data-original="#b4c17d" class=""></circle><g fill="#fff"><path d="M105771 127001h144030c4663 0 8466 3803 8466 8466v135385c0 13984-11415 25399-25399 25399H122704c-13984 0-25399-11410-25399-25399V135467c0-4663 3803-8466 8466-8466zm15294 122345v-84304c0-6995 5706-12701 12701-12701s12701 5753 12701 12701v84304c0 6948-5706 12701-12701 12701s-12701-5706-12701-12701zm44020 0v-84304c0-6995 5706-12701 12701-12701s12701 5753 12701 12701v84304c0 6948-5706 12701-12701 12701s-12701-5706-12701-12701zm44020 0v-84304c0-6995 5706-12701 12701-12701s12701 5753 12701 12701v84304c0 6948-5706 12701-12701 12701s-12701-5706-12701-12701zM97359 85240h160854c6994 0 12699 5705 12699 12699s-5705 12699-12699 12699H97359c-6994 0-12699-5705-12699-12699s5705-12699 12699-12699z" fill="#ffffff" opacity="1" data-original="#ffffff" class=""></path><path d="M164901 59321h25770c6994 0 12699 5705 12699 12699v1934c0 6994-5705 12699-12699 12699h-25770c-6994 0-12699-5705-12699-12699v-1934c0-6994 5705-12699 12699-12699z" fill="#ffffff" opacity="1" data-original="#ffffff" class=""></path></g></g></svg>