<svg xmlns="http://www.w3.org/2000/svg" version="1.1" xmlns:xlink="http://www.w3.org/1999/xlink" width="512" height="512" x="0" y="0" viewBox="0 0 1.693 1.693" style="enable-background:new 0 0 512 512" xml:space="preserve" fill-rule="evenodd" class=""><g><circle cx=".847" cy=".847" r=".847" fill="#ffbb33" opacity="1" data-original="#ffbb33" class=""></circle><path fill="#ffffff" fill-rule="nonzero" d="M.422 1.128.945.38.969.347l.039-.055.002-.004h.001a.088.088 0 0 1 .12-.018l.002.002.121.085a.088.088 0 0 1 .022.123l-.063.09-.024.033-.498.713-.007.01-.01.004-.212.096-.025.011a.025.025 0 0 1-.025-.002.025.025 0 0 1-.01-.022v-.027l.013-.236v-.012zM.99.464l-.491.702-.008.155.139-.063.492-.702zm.217-.039L1.083.34 1.079.338c-.001 0-.002 0-.003.002l-.003.004-.036.05.132.093.038-.055.001-.004c0-.001 0-.002-.002-.003z" opacity="1" data-original="#ffffff" class=""></path></g></svg>