<svg xmlns="http://www.w3.org/2000/svg" version="1.1" xmlns:xlink="http://www.w3.org/1999/xlink" width="512" height="512" x="0" y="0" viewBox="0 0 2.54 2.54" style="enable-background:new 0 0 512 512" xml:space="preserve" fill-rule="evenodd" class=""><g><circle cx="1.27" cy="1.27" r="1.27" fill="#178feb" opacity="1" data-original="#178feb"></circle><g fill="#fff"><path d="M1.09.413a.677.677 0 1 1 0 1.355.677.677 0 0 1 0-1.355zm0 .255a.423.423 0 1 1 0 .845.423.423 0 0 1 0-.845z" fill="#ffffff" opacity="1" data-original="#ffffff"></path><path d="m1.6 1.435.324.324c.05.05.05.13 0 .18-.049.048-.13.048-.18 0l-.323-.324a.127.127 0 0 1 .18-.18z" fill="#ffffff" opacity="1" data-original="#ffffff"></path></g></g></svg>